<svg width="16" height="13" viewBox="0 0 16 13" fill="none" xmlns="http://www.w3.org/2000/svg">
<path d="M14.4 3.25L8 7.3125L1.6 3.25V1.625L8 5.6875L14.4 1.625V3.25ZM14.4 0H1.6C0.712 0 0 0.723125 0 1.625V11.375C0 11.806 0.168571 12.2193 0.468629 12.524C0.768687 12.8288 1.17565 13 1.6 13H14.4C14.8243 13 15.2313 12.8288 15.5314 12.524C15.8314 12.2193 16 11.806 16 11.375V1.625C16 0.723125 15.28 0 14.4 0Z" fill="url(#paint0_linear_241_1024)"/>
<defs>
<linearGradient id="paint0_linear_241_1024" x1="-0.282353" y1="6.55791e-06" x2="16.5176" y2="6.55279e-06" gradientUnits="userSpaceOnUse">
<stop stop-color="#00F0FF"/>
<stop offset="1" stop-color="#3360FF"/>
</linearGradient>
</defs>
</svg>
