<svg width="15" height="14" viewBox="0 0 15 14" fill="none" xmlns="http://www.w3.org/2000/svg">
<path d="M6.35583 8.06789C6.68853 8.36327 6.68853 8.84799 6.35583 9.14336C6.03936 9.43873 5.52002 9.43873 5.20354 9.14336C3.62118 7.66649 3.62118 5.26562 5.20354 3.78875L8.07614 1.10765C9.65851 -0.369218 12.2309 -0.369218 13.8132 1.10765C15.3956 2.58453 15.3956 4.98539 13.8132 6.46227L12.6041 7.59075C12.6123 6.96971 12.5068 6.34866 12.2796 5.75791L12.6609 5.39437C13.6185 4.50825 13.6185 3.06925 12.6609 2.18312C11.7115 1.28942 10.1697 1.28942 9.22031 2.18312L6.35583 4.85664C5.3983 5.74276 5.3983 7.18177 6.35583 8.06789ZM8.64417 4.85664C8.96064 4.56127 9.47998 4.56127 9.79646 4.85664C11.3788 6.33351 11.3788 8.73438 9.79646 10.2113L6.92386 12.8923C5.34149 14.3692 2.76914 14.3692 1.18677 12.8923C-0.395591 11.4155 -0.395591 9.01461 1.18677 7.53773L2.39586 6.40925C2.38775 7.0303 2.49324 7.65134 2.72045 8.24966L2.33906 8.60563C1.38153 9.49175 1.38153 10.9308 2.33906 11.8169C3.28848 12.7106 4.83027 12.7106 5.77969 11.8169L8.64417 9.14336C9.6017 8.25724 9.6017 6.81823 8.64417 5.93211C8.31147 5.63673 8.31147 5.15202 8.64417 4.85664Z" fill="url(#paint0_linear_241_1018)"/>
<defs>
<linearGradient id="paint0_linear_241_1018" x1="-0.264706" y1="7.06245e-06" x2="15.4853" y2="7.05828e-06" gradientUnits="userSpaceOnUse">
<stop stop-color="#00F0FF"/>
<stop offset="1" stop-color="#3360FF"/>
</linearGradient>
</defs>
</svg>
