<svg width="10" height="15" viewBox="0 0 10 15" fill="none" xmlns="http://www.w3.org/2000/svg">
<path d="M4.95833 6.72917C4.48868 6.72917 4.03826 6.5426 3.70617 6.2105C3.37407 5.87841 3.1875 5.42799 3.1875 4.95833C3.1875 4.48868 3.37407 4.03826 3.70617 3.70617C4.03826 3.37407 4.48868 3.1875 4.95833 3.1875C5.42799 3.1875 5.87841 3.37407 6.2105 3.70617C6.5426 4.03826 6.72917 4.48868 6.72917 4.95833C6.72917 5.19088 6.68336 5.42115 6.59437 5.636C6.50538 5.85085 6.37494 6.04606 6.2105 6.2105C6.04607 6.37494 5.85085 6.50538 5.636 6.59437C5.42116 6.68336 5.19088 6.72917 4.95833 6.72917ZM4.95833 0C3.6433 0 2.38213 0.522394 1.45226 1.45226C0.522394 2.38213 0 3.6433 0 4.95833C0 8.67708 4.95833 14.1667 4.95833 14.1667C4.95833 14.1667 9.91667 8.67708 9.91667 4.95833C9.91667 3.6433 9.39427 2.38213 8.46441 1.45226C7.53454 0.522394 6.27337 0 4.95833 0Z" fill="url(#paint0_linear_241_1128)"/>
<defs>
<linearGradient id="paint0_linear_241_1128" x1="0.0935536" y1="2.28706e-06" x2="10.1038" y2="2.33006e-06" gradientUnits="userSpaceOnUse">
<stop stop-color="#00F0FF"/>
<stop offset="1" stop-color="#3360FF"/>
</linearGradient>
</defs>
</svg>
