<svg width="24" height="34" viewBox="0 0 24 34" fill="none" xmlns="http://www.w3.org/2000/svg">
<path fill-rule="evenodd" clip-rule="evenodd" d="M21.7523 21.4335V11.7278C21.7523 6.14409 17.2436 1.61762 11.6818 1.61762C6.12002 1.61762 1.61129 6.14409 1.61129 11.7278V21.4335C1.61129 27.0172 6.12002 31.5437 11.6818 31.5437C17.2436 31.5437 21.7523 27.0172 21.7523 21.4335ZM11.6818 0C5.23013 0 0 5.2507 0 11.7278V21.4335C0 27.9106 5.23013 33.1613 11.6818 33.1613C18.1335 33.1613 23.3636 27.9106 23.3636 21.4335V11.7278C23.3636 5.2507 18.1335 0 11.6818 0Z" fill="white"/>
<path fill-rule="evenodd" clip-rule="evenodd" d="M11.6815 11.8914C12.6296 11.8914 13.3982 11.1228 13.3982 10.1747C13.3982 9.2266 12.6296 8.45802 11.6815 8.45802C10.7334 8.45802 9.96485 9.2266 9.96485 10.1747C9.96485 11.1228 10.7334 11.8914 11.6815 11.8914ZM11.6815 13.5662C13.5546 13.5662 15.073 12.0478 15.073 10.1747C15.073 8.30163 13.5546 6.7832 11.6815 6.7832C9.80846 6.7832 8.29004 8.30163 8.29004 10.1747C8.29004 12.0478 9.80846 13.5662 11.6815 13.5662Z" fill="white"/>
</svg>
