<svg width="18" height="19" viewBox="0 0 18 19" fill="none" xmlns="http://www.w3.org/2000/svg">
<path d="M14.4589 13.2046C13.7658 13.2046 13.1457 13.4812 12.6714 13.9146L6.16906 10.0881C6.21466 9.87601 6.25114 9.66393 6.25114 9.44264C6.25114 9.22135 6.21466 9.00928 6.16906 8.79721L12.5985 5.0076C13.0909 5.46862 13.7384 5.75445 14.4589 5.75445C15.9728 5.75445 17.1948 4.51891 17.1948 2.98831C17.1948 1.45771 15.9728 0.222168 14.4589 0.222168C12.945 0.222168 11.723 1.45771 11.723 2.98831C11.723 3.2096 11.7595 3.42167 11.8051 3.63374L5.37564 7.42336C4.88318 6.96234 4.23568 6.6765 3.51522 6.6765C2.00134 6.6765 0.779297 7.91204 0.779297 9.44264C0.779297 10.9732 2.00134 12.2088 3.51522 12.2088C4.23568 12.2088 4.88318 11.923 5.37564 11.4619L11.8689 15.2976C11.8233 15.4913 11.7959 15.6941 11.7959 15.897C11.7959 17.3815 12.9906 18.5894 14.4589 18.5894C15.9272 18.5894 17.1219 17.3815 17.1219 15.897C17.1219 14.4125 15.9272 13.2046 14.4589 13.2046Z" fill="white"/>
</svg>
