<svg width="770" height="141" viewBox="0 0 770 141" fill="none" xmlns="http://www.w3.org/2000/svg">
<path d="M117.975 39.5L103.935 91.76L88.725 39.5H61.425L46.215 91.76L32.175 39.5H0.975L32.175 137H59.475L75.075 84.935L90.675 137H117.975L149.175 39.5H117.975ZM183.105 99.95H252.33C253.11 96.245 253.5 92.345 253.5 88.25C253.5 58.805 232.44 36.77 203.97 36.77C173.16 36.77 152.1 59.195 152.1 88.25C152.1 117.305 172.77 139.73 206.115 139.73C224.64 139.73 239.07 132.905 248.625 119.645L225.225 106.19C221.325 110.48 214.5 113.6 206.505 113.6C195.78 113.6 186.81 110.09 183.105 99.95ZM182.52 78.11C185.25 68.165 192.66 62.705 203.775 62.705C212.55 62.705 221.325 66.8 224.445 78.11H182.52ZM328.395 36.77C315.33 36.77 305.775 41.255 299.34 48.665V0.499991H270.09V137H299.34V127.835C305.775 135.245 315.33 139.73 328.395 139.73C353.94 139.73 375 117.305 375 88.25C375 59.195 353.94 36.77 328.395 36.77ZM322.545 112.04C309.09 112.04 299.34 102.875 299.34 88.25C299.34 73.625 309.09 64.46 322.545 64.46C336 64.46 345.75 73.625 345.75 88.25C345.75 102.875 336 112.04 322.545 112.04ZM445.794 49.055V39.5H416.739V12.2L406.794 15.125V39.5H385.344V49.055H406.794V112.43C406.794 134.66 420.249 140.9 445.794 137V128.225C425.904 129.98 416.739 129.59 416.739 112.43V49.055H445.794ZM507.161 37.355C477.326 37.355 456.656 59.585 456.656 88.25C456.656 117.695 477.911 139.145 507.941 139.145C527.246 139.145 542.456 130.37 550.451 117.11L541.871 112.04C536.216 122.375 524.126 129.785 508.136 129.785C485.906 129.785 469.136 115.355 466.796 93.32H555.131C555.131 91.76 555.326 90.2 555.326 88.64C555.326 61.925 536.801 37.355 507.161 37.355ZM507.161 46.715C526.271 46.715 543.041 59.975 545.186 83.765H466.796C468.746 62.12 484.931 46.715 507.161 46.715ZM622.771 139.145C641.881 139.145 658.261 129.395 666.061 114.38L657.871 109.505C651.436 121.595 638.566 129.785 622.771 129.785C599.176 129.785 581.431 111.455 581.431 88.25C581.431 65.045 599.176 46.715 622.771 46.715C638.371 46.715 651.631 54.71 657.286 66.995L665.281 62.315C658.261 47.105 641.881 37.355 622.771 37.355C593.326 37.355 571.486 59.39 571.486 88.25C571.486 117.11 593.326 139.145 622.771 139.145ZM732.077 37.355C717.062 37.355 704.582 43.595 697.172 58.025V0.499991H687.422V137H697.172V85.52C697.172 59.195 712.187 46.715 731.297 46.715C749.627 46.715 759.962 58.415 759.962 76.355V137H769.907V76.355C769.907 52.76 755.282 37.355 732.077 37.355Z" fill="#31373F" fill-opacity="0.3"/>
</svg>
