<svg width="21" height="22" viewBox="0 0 21 22" fill="none" xmlns="http://www.w3.org/2000/svg">
<path d="M10.5 2.01667C13.3 2.01667 13.65 2.01667 14.7875 2.10833C17.675 2.2 18.9875 3.66667 19.075 6.6C19.1625 7.79167 19.1625 8.06667 19.1625 11C19.1625 13.9333 19.1625 14.3 19.075 15.4C18.9875 18.3333 17.5875 19.8 14.7875 19.8917C13.65 19.9833 13.3875 19.9833 10.5 19.9833C7.7 19.9833 7.35 19.9833 6.3 19.8917C3.4125 19.8 2.1 18.3333 2.0125 15.4C1.925 14.2083 1.925 13.9333 1.925 11C1.925 8.06667 1.925 7.7 2.0125 6.6C2.1 3.66667 3.5 2.2 6.3 2.10833C7.35 2.01667 7.7 2.01667 10.5 2.01667ZM10.5 0C7.6125 0 7.2625 0 6.2125 0.0916667C2.3625 0.275 0.2625 2.475 0.0875 6.50833C0 7.60833 0 7.975 0 11C0 14.025 0 14.3917 0.0875 15.4917C0.2625 19.525 2.3625 21.725 6.2125 21.9083C7.2625 22 7.6125 22 10.5 22C13.3875 22 13.7375 22 14.7875 21.9083C18.6375 21.725 20.7375 19.525 20.9125 15.4917C21 14.3917 21 14.025 21 11C21 7.975 21 7.60833 20.9125 6.50833C20.7375 2.475 18.6375 0.275 14.7875 0.0916667C13.7375 0 13.3875 0 10.5 0ZM10.5 5.31667C7.525 5.31667 5.075 7.88333 5.075 11C5.075 14.1167 7.525 16.6833 10.5 16.6833C13.475 16.6833 15.925 14.1167 15.925 11C15.925 7.88333 13.475 5.31667 10.5 5.31667ZM10.5 14.6667C8.575 14.6667 7 13.0167 7 11C7 8.98333 8.575 7.33333 10.5 7.33333C12.425 7.33333 14 8.98333 14 11C14 13.0167 12.425 14.6667 10.5 14.6667ZM16.1 3.85C15.4 3.85 14.875 4.4 14.875 5.13333C14.875 5.86667 15.4 6.41667 16.1 6.41667C16.8 6.41667 17.325 5.86667 17.325 5.13333C17.325 4.4 16.8 3.85 16.1 3.85Z" fill="white"/>
</svg>
