<svg width="120" height="82" viewBox="0 0 120 82" fill="none" xmlns="http://www.w3.org/2000/svg">
<path d="M97.7483 81.0835C94.8677 81.087 92.0149 80.5211 89.3544 79.4184C86.694 78.3158 84.2785 76.6983 82.2473 74.6592L54.4951 47.0184L69.9881 31.5437C72.5538 28.9599 73.9933 25.4691 73.9933 21.8309C73.9933 18.1927 72.5538 14.7018 69.9881 12.1181L75.7557 6.40039L113.241 43.8223C117.34 47.9297 119.641 53.4912 119.641 59.2889C119.641 65.0866 117.34 70.6481 113.241 74.7555C111.203 76.7767 108.786 78.3761 106.127 79.462C103.468 80.548 100.621 81.099 97.7483 81.0835V81.0835ZM66.0304 47.0184L88.023 68.9656C89.2949 70.2694 90.8135 71.308 92.4908 72.0211C94.1681 72.7342 95.9706 73.1075 97.7936 73.1193C99.6166 73.1312 101.424 72.7814 103.11 72.0903C104.797 71.3991 106.329 70.3804 107.618 69.0932C108.906 67.8061 109.926 66.2761 110.618 64.5923C111.31 62.9084 111.659 61.1041 111.647 59.2842C111.634 57.4643 111.259 55.665 110.544 53.9909C109.829 52.3168 108.788 50.8011 107.482 49.5319L82.0301 24.1316C81.5246 29.1131 79.3077 33.7665 75.7557 37.3015L66.0304 47.0184Z" fill="white"/>
<path d="M22.473 81.0835C18.1481 81.0742 13.9228 79.7869 10.3297 77.384C6.7365 74.9811 3.9363 71.5701 2.282 67.581C0.627699 63.5918 0.193347 59.203 1.03369 54.9678C1.87403 50.7326 3.95146 46.8405 7.00412 43.7821L44.4575 6.40039L50.2251 12.1582C47.6643 14.7413 46.2279 18.2288 46.2279 21.863C46.2279 25.4973 47.6643 28.9847 50.2251 31.5678L65.7262 47.0184L37.9659 74.7154C35.93 76.742 33.5135 78.3476 30.855 79.4404C28.1964 80.5331 25.348 81.0915 22.473 81.0835V81.0835ZM38.1831 24.1396L12.7396 49.5399C10.1592 52.1159 8.70955 55.6097 8.70955 59.2528C8.70955 62.8958 10.1592 66.3896 12.7396 68.9656C15.32 71.5416 18.8197 72.9888 22.4689 72.9888C26.1182 72.9888 29.6179 71.5416 32.1983 68.9656L54.1909 47.0184L44.4575 37.3015C40.9072 33.7686 38.6904 29.1183 38.1831 24.1396V24.1396Z" fill="white"/>
<path d="M60.115 52.768L44.6139 37.3013C41.5557 34.2427 39.4743 30.3478 38.6327 26.1087C37.791 21.8695 38.227 17.4765 39.8854 13.4846C41.5439 9.49277 44.3504 6.08124 47.9503 3.68111C51.5502 1.28099 55.782 0 60.1109 0C64.4399 0 68.6717 1.28099 72.2716 3.68111C75.8715 6.08124 78.678 9.49277 80.3364 13.4846C81.9949 17.4765 82.4308 21.8695 81.5892 26.1087C80.7476 30.3478 78.6661 34.2427 75.6079 37.3013L60.115 52.768ZM60.115 8.11065C57.3974 8.11495 54.742 8.92226 52.4833 10.4308C50.2247 11.9394 48.4639 14.0817 47.423 16.5877C46.3821 19.0937 46.1076 21.8513 46.6341 24.5128C47.1606 27.1743 48.4645 29.6206 50.3816 31.5435L60.115 41.2603L69.8403 31.5435C71.7652 29.6236 73.0761 27.1767 73.607 24.5126C74.138 21.8485 73.865 19.087 72.8228 16.5778C71.7805 14.0686 70.0159 11.9247 67.7523 10.4174C65.4886 8.91009 62.8279 8.1073 60.1069 8.11065H60.115Z" fill="white"/>
</svg>
