<svg width="120" height="119" viewBox="0 0 120 119" fill="none" xmlns="http://www.w3.org/2000/svg">
<g opacity="0.7">
<path d="M89.1103 68.5615C91.1542 72.9271 89.8205 77.2469 89.1103 79.5211C87.6029 84.3942 84.6495 87.3587 82.3194 89.6735C76.5811 95.303 70.4698 97.6634 67.0412 98.9477C58.5488 102.125 51.3849 102.262 45.8152 102.323C40.8638 102.374 35.9534 102.425 29.6837 100.633C26.2754 99.6584 19.832 97.7446 13.5572 92.1963C9.61987 88.636 6.44336 84.3255 4.21657 79.5211C1.54069 73.8024 0.215888 67.5518 0.343361 61.2467C0.343361 60.9675 0.343361 60.6985 0.343361 60.4396V60.4396C0.343361 60.2283 0.591468 60.1825 0.68104 60.3738C2.91352 65.1431 5.97823 69.4845 9.73512 73.1961C13.1943 76.6463 17.2097 79.4978 21.6153 81.6328C28.4113 84.8714 34.2262 85.3841 39.4484 85.846C45.9021 86.4247 50.2607 85.9323 58.1246 85.0034C60.8785 84.5721 63.5816 83.8663 66.193 82.8967C66.9903 82.6394 67.7674 82.3238 68.5179 81.9526C69.2758 81.5856 69.9319 81.0402 70.429 80.3637C70.9872 79.6692 71.341 78.8346 71.4509 77.9525C71.4584 77.7376 71.4378 77.5226 71.3896 77.3129C71.36 77.206 71.3242 77.1009 71.2823 76.9982C70.6436 75.5667 68.4975 75.3636 67.8894 75.3078C66.3003 75.1555 64.8849 75.7139 62.4628 76.5159C61.8905 76.7038 61.4409 76.8713 61.0934 76.9982C59.9795 77.3941 59.0802 77.6733 58.5385 77.8357C48.0447 81.0503 37.0513 79.601 36.4917 79.5242C36.4737 79.5217 36.4604 79.5197 36.4425 79.517C32.3632 78.9034 28.3808 77.7684 24.5943 76.1403C21.0686 74.6174 16.8173 72.7697 12.709 68.526C12.4229 68.2316 11.963 67.7544 11.4111 67.0945C10.4089 65.9007 9.49692 64.635 8.68251 63.3076C7.5711 61.4875 6.64343 59.5627 5.91301 57.5614C4.31099 52.9733 3.73214 48.0941 4.21657 43.2617C4.65536 39.1656 5.80502 35.1759 7.61456 31.4697C11.033 23.8909 15.6676 19.2005 18.6466 16.2715C23.4896 11.289 29.2549 7.2817 35.6263 4.4693C41.0167 2.15232 46.7524 0.727372 52.6061 0.250973C58.5581 -0.266437 64.5533 0.0170073 70.429 1.09362C74.1898 1.75861 79.1156 2.66217 84.8641 5.31195C90.2084 7.78279 95.0752 11.1657 99.243 15.307V15.307C99.6303 15.6918 99.1951 16.3056 98.6938 16.0889C87.6642 11.3214 79.9438 10.4486 75.5285 10.3679C74.4197 10.3679 73.0401 10.3679 72.9736 10.3679C68.7938 10.4338 61.6146 10.5811 53.4543 12.906C47.0754 14.6874 41.0471 17.5315 35.6263 21.3172C32.1568 23.7944 28.907 26.1752 26.2908 30.5915C24.2249 33.8995 23.0544 37.6817 22.8928 41.5713C22.7376 45.6702 23.6363 49.7407 25.5039 53.3989C27.2495 56.6585 29.7877 59.433 32.8875 61.47C33.5337 61.8929 34.2024 62.2809 34.8905 62.6325C38.1622 64.2758 41.7761 65.1347 45.4422 65.1402C49.0548 65.2011 51.7885 64.5615 56.0041 63.5056C61.2212 62.1909 61.0781 61.5462 64.6498 60.7391C67.3376 60.1198 74.4759 58.5005 81.4712 61.8152C83.5406 62.8 87.2043 64.5462 89.1103 68.5615Z" fill="url(#paint0_linear_241_822)"/>
<path d="M119.667 57.2013V57.2013C119.667 57.562 119.168 57.6591 119.01 57.3348C116.809 52.8136 113.856 48.6902 110.27 45.1402C106.814 41.6848 102.796 38.8326 98.3849 36.7036C91.594 33.465 85.7791 32.9523 80.5621 32.4853C74.1084 31.9066 69.7498 32.3888 61.891 33.3228C59.139 33.7575 56.4378 34.465 53.8277 35.4345C52.0138 36.064 50.5984 36.5868 49.5764 37.9726C49.326 38.3178 48.115 39.9574 48.7282 41.3382C49.3414 42.7189 51.5232 42.9676 52.1262 43.0235C53.7153 43.1808 55.1307 42.6224 57.5528 41.8204L58.0637 41.6529L58.9375 41.3382C60.0514 40.9422 60.9508 40.6579 61.4924 40.4955C72.0409 37.2708 83.0936 38.7492 83.5566 38.8132C83.5714 38.8152 83.5791 38.8164 83.5939 38.8186C87.6759 39.4268 91.6616 40.5569 95.4519 42.1808C98.9777 43.7037 103.224 45.5514 107.337 49.7951C110.344 52.9415 112.659 56.6757 114.133 60.7597C115.741 65.3587 116.319 70.2512 115.825 75.0949C115.382 79.1945 114.234 83.1882 112.432 86.9022C109.013 94.4658 104.353 99.1562 101.389 102.085C92.4484 111.401 80.3579 117.106 67.4402 118.106C61.4726 118.622 55.4622 118.337 49.5713 117.258C45.8207 116.593 40.8847 115.689 35.1413 113.04C29.0548 110.215 23.5929 106.22 19.0714 101.284C19.0586 101.271 19.0746 101.249 19.0915 101.258V101.258C19.3215 101.359 19.5514 101.471 19.7711 101.562C31.6309 106.933 39.8525 107.882 44.482 107.968C45.5857 107.968 46.9653 107.968 47.0369 107.968C51.2166 107.902 58.3959 107.755 66.5613 105.43C72.9434 103.641 78.9734 100.788 84.3944 96.9937C87.8639 94.5165 90.8429 92.2982 93.4642 87.8565C94.384 86.3032 96.4841 82.9123 97.0104 78.2574C97.0759 77.7521 97.1152 77.2439 97.1279 76.7346C97.1586 75.7193 97.6083 70.3436 94.941 65.11C92.0233 59.3892 87.2456 57.2013 86.0908 56.4805C82.2208 54.2542 77.8242 53.0909 73.3522 53.1099C72.1432 53.1235 70.9379 53.2422 69.7498 53.4645C69.7294 53.4684 69.7087 53.4703 69.6879 53.4703V53.4703C69.6679 53.4703 69.648 53.4721 69.6283 53.4757C68.1021 53.7552 66.3362 54.2001 63.9195 54.8104C55.5446 56.917 55.284 58.0998 50.6341 58.4805C46.8794 58.7473 43.1094 58.2481 39.5562 57.0135C36.5874 55.9627 35.1822 54.8358 34.3851 54.0794C33.1111 52.8472 32.0998 51.3729 31.4112 49.7444C30.3031 47.4607 29.7951 44.9355 29.9345 42.4042C30.0279 41.1555 30.275 39.923 30.6703 38.7341C31.5083 36.196 32.8061 34.5411 34.4106 32.4243C35.4113 31.1046 36.5077 29.8593 37.6911 28.6984C43.4294 23.0587 49.5458 20.6983 52.9693 19.414C61.4668 16.2363 68.6307 16.0992 74.1902 16.0383C79.1467 15.9876 84.0571 15.9368 90.3217 17.7287C93.7248 18.7033 100.173 20.6171 106.453 26.1552C110.382 29.7159 113.556 34.0201 115.789 38.8153C118.475 44.5703 119.802 50.8591 119.667 57.2013Z" fill="url(#paint1_linear_241_822)"/>
<path opacity="0.1" d="M-nan -nanL68.5178 81.9521C66.3257 84.4902 62.0846 87.8405 57.1894 90.0741C46.1012 95.1503 35.3349 92.7543 32.4377 92.064C25.8001 90.4218 19.6519 87.2322 14.5024 82.7593C2.97474 72.9825 0.629354 61.6981 0.593585 61.4899C0.519496 61.0827 0.469279 60.6802 0.466011 60.6537C0.465891 60.6528 0.465757 60.6516 0.465653 60.6506V60.6506C0.443295 60.4422 0.706708 60.3771 0.796287 60.5667C3.01342 65.2582 6.03759 69.5323 9.73496 73.1957C13.1942 76.6459 17.2096 79.4974 21.6152 81.6323C28.4112 84.871 34.2261 85.3837 39.4483 85.8456C45.9019 86.4243 50.2605 85.9319 58.1245 85.003C60.8783 84.5717 63.5814 83.8659 66.1928 82.8963C66.9902 82.639 67.7673 82.3234 68.5178 81.9521L-nan -nanL-nan -nanZ" fill="#141212"/>
<path opacity="0.1" d="M111.277 39.5911C113.839 42.1498 115.802 45.2385 117.025 48.6369C118.285 51.5377 119.136 54.597 119.555 57.7284C119.555 58.0076 119.585 58.3021 119.626 58.6117V58.6117C119.634 58.6635 119.561 58.6846 119.539 58.637C117.301 53.7207 114.181 49.2486 110.332 45.4389C106.872 41.9894 102.855 39.141 98.4463 37.0124C91.6503 33.7738 85.8405 33.2611 80.6183 32.7992C74.1596 32.2205 69.8061 32.7027 61.9472 33.6367C59.1937 34.0717 56.4908 34.7791 53.8789 35.7485C52.07 36.3779 50.6495 36.9008 49.6327 38.2866C49.3823 38.6317 48.1713 40.2714 48.7845 41.6521C49.3976 43.0328 51.5744 43.2815 52.1825 43.3374C53.7665 43.4947 55.187 42.9364 57.609 42.1343V42.1343C57.7246 42.0964 57.8032 42.2334 57.7066 42.3073C54.2217 44.972 46.0181 46.7222 43.6594 45.4897C41.6717 44.4745 41.8607 38.3221 44.4361 34.8804C51.1094 25.9108 65.054 25.8854 72.4631 25.9108C80.0511 25.7331 98.3748 27.3423 111.277 39.5911Z" fill="#A8A9AA"/>
<path opacity="0.1" d="M100.157 16.3479C100.307 16.4846 100.144 16.7278 99.9595 16.6448C88.2556 11.3885 80.1151 10.4519 75.5334 10.3681C74.4246 10.3681 73.045 10.3681 72.9786 10.3681C68.7988 10.4341 61.6195 10.5813 53.4592 12.9062C47.0785 14.6871 41.0485 17.5313 35.6261 21.3175C32.1566 23.7947 28.9068 26.1754 26.2906 30.5917C24.2247 33.8997 23.0542 37.6819 22.8926 41.5716C22.7374 45.6704 23.6361 49.741 25.5037 53.3991C27.2493 56.6588 29.7875 59.4332 32.8873 61.4703V61.4703C33.3134 61.7491 33.0949 62.4221 32.5951 62.3252C29.653 61.755 26.8693 60.5258 24.4613 58.719C17.8595 53.6428 17.1032 45.2721 16.8988 42.9828C16.0557 33.7542 20.4757 26.81 22.1363 24.282C29.2083 13.5306 40.5264 10.028 47.3479 7.91123C62.7795 3.13959 75.3955 6.1041 84.3222 8.20057C85.6201 8.59144 86.9691 9.05337 88.3641 9.6016C92.2136 11.1235 95.8575 13.1151 99.2121 15.5306C99.5238 15.7895 99.8355 16.0382 100.157 16.3479V16.3479Z" fill="#070707"/>
<path opacity="0.1" d="M103.653 76.2625C103.786 85.354 99.504 91.7754 97.6338 94.481C89.6728 106.045 76.9699 109.395 69.8775 111.258C52.4634 115.826 38.4473 111.258 35.6421 110.293V110.293C33.1395 109.43 34.4282 106.721 37.0327 107.195C40.1156 107.757 42.5984 107.934 44.482 107.969C45.5857 107.969 46.9653 107.969 47.0369 107.969C51.2166 107.903 58.3959 107.755 66.5613 105.43C72.9434 103.641 78.9734 100.788 84.3944 96.9938C87.8639 94.5166 90.8429 92.2983 93.4642 87.8566C94.384 86.3033 96.4841 82.9124 97.0104 78.2575C97.0759 77.7522 97.1152 77.2439 97.1279 76.7346C97.1586 75.7194 97.6083 70.3437 94.941 65.1101C92.0233 59.3892 87.2456 57.2014 86.0908 56.4805C82.2208 54.2543 77.8242 53.091 73.3522 53.1099C72.1328 53.1237 70.9171 53.2443 69.7191 53.4703C81.9059 50.6226 93.735 53.7698 99.4886 61.6684C103.556 67.3284 103.617 74.0696 103.653 76.2625Z" fill="#141313"/>
<path opacity="0.1" d="M71.3996 77.2784C71.3968 77.2883 71.3826 77.2883 71.3798 77.2784C71.3522 77.1835 71.3196 77.09 71.2823 76.9984C70.6436 75.5669 68.4975 75.3639 67.8894 75.308C66.3003 75.1558 64.8849 75.7141 62.4628 76.5162C61.8906 76.704 61.4409 76.8715 61.0934 76.9984C59.9795 77.3944 59.0802 77.6735 58.5385 77.836C48.0447 81.0505 37.0513 79.6012 36.4917 79.5244C36.4737 79.5219 36.4605 79.5199 36.4425 79.5172C32.3632 78.9036 28.3808 77.7687 24.5943 76.1405C21.0686 74.6177 16.8173 72.7699 12.709 68.5262V68.5262C12.5234 68.3352 12.8011 68.0126 13.0316 68.146C14.548 69.0239 16.3597 69.8619 17.8954 70.5719C20.5639 71.7833 23.3381 72.7501 26.1835 73.4603C30.0101 74.5175 33.9304 75.206 37.89 75.5162C41.6252 75.7801 43.9808 75.9426 47.1438 75.2624C49.3122 74.7395 51.4497 74.0972 53.5463 73.3385C55.3552 72.709 56.5151 72.2217 58.8502 71.5313C60.1921 71.1298 61.5572 70.8094 62.9381 70.5719C65.0126 70.2217 66.0755 70.0643 67.2711 70.44C68.331 70.8037 69.2709 71.4478 69.9895 72.3029C71.102 73.711 71.609 75.4989 71.3999 77.2768C71.3999 77.2773 71.3998 77.2779 71.3996 77.2784V77.2784Z" fill="#0A0101"/>
</g>
<defs>
<linearGradient id="paint0_linear_241_822" x1="0.338251" y1="51.1552" x2="100.996" y2="51.1552" gradientUnits="userSpaceOnUse">
<stop stop-color="white"/>
<stop offset="0.42" stop-color="white"/>
<stop offset="0.64" stop-color="white"/>
<stop offset="0.99" stop-color="white"/>
</linearGradient>
<linearGradient id="paint1_linear_241_822" x1="3697.37" y1="13559.9" x2="23528.7" y2="13559.9" gradientUnits="userSpaceOnUse">
<stop stop-color="white"/>
<stop offset="0.42" stop-color="white"/>
<stop offset="0.64" stop-color="white"/>
<stop offset="0.99" stop-color="white"/>
</linearGradient>
</defs>
</svg>
